<svg width="1268" height="662" viewBox="0 0 1268 662" fill="none" xmlns="http://www.w3.org/2000/svg">
<rect width="1268" height="662" rx="8" fill="white"/>
<rect x="358.5" y="74" width="551" height="296" rx="8" fill="black"/>
<path d="M434.563 167.75H455.656L483 249.078L510.266 167.75H531.359L491.516 281.5H474.406L434.563 167.75ZM422.375 167.75H443.859L447.844 252.047V281.5H422.375V167.75ZM522.063 167.75H543.625V281.5H518.078V252.047L522.063 167.75ZM639.875 261.812V281.5H579.328V261.812H639.875ZM588 167.75V281.5H562.531V167.75H588ZM632.063 213.531V232.594H579.328V213.531H632.063ZM639.953 167.75V187.516H579.328V167.75H639.953ZM744.016 221.422V267.281C742.141 269.417 739.276 271.708 735.422 274.156C731.62 276.604 726.75 278.714 720.813 280.484C714.875 282.203 707.792 283.062 699.563 283.062C692.115 283.062 685.344 281.865 679.25 279.469C673.156 277.021 667.922 273.453 663.547 268.766C659.172 264.026 655.786 258.245 653.391 251.422C651.047 244.599 649.875 236.786 649.875 227.984V221.266C649.875 212.464 651.047 204.651 653.391 197.828C655.734 191.005 659.042 185.25 663.313 180.562C667.583 175.823 672.661 172.229 678.547 169.781C684.432 167.333 690.943 166.109 698.078 166.109C708.234 166.109 716.542 167.75 723 171.031C729.458 174.26 734.354 178.74 737.688 184.469C741.073 190.198 743.156 196.786 743.938 204.234H719.406C718.885 200.432 717.844 197.151 716.281 194.391C714.771 191.63 712.609 189.521 709.797 188.062C706.984 186.552 703.339 185.797 698.859 185.797C695.266 185.797 692.01 186.552 689.094 188.062C686.229 189.521 683.807 191.734 681.828 194.703C679.849 197.672 678.339 201.37 677.297 205.797C676.255 210.172 675.734 215.276 675.734 221.109V227.984C675.734 233.818 676.255 238.948 677.297 243.375C678.391 247.802 679.979 251.5 682.063 254.469C684.146 257.385 686.776 259.599 689.953 261.109C693.182 262.62 696.932 263.375 701.203 263.375C704.536 263.375 707.349 263.115 709.641 262.594C711.932 262.021 713.807 261.318 715.266 260.484C716.724 259.599 717.818 258.792 718.547 258.062V239.156H698.313V221.422H744.016ZM806.906 232.359H777.688L777.531 215.328H801.672C805.943 215.328 809.406 214.807 812.063 213.766C814.771 212.724 816.75 211.214 818 209.234C819.25 207.203 819.875 204.703 819.875 201.734C819.875 198.349 819.25 195.615 818 193.531C816.75 191.448 814.771 189.938 812.063 189C809.406 188.01 805.969 187.516 801.75 187.516H786.906V281.5H761.438V167.75H801.75C808.573 167.75 814.667 168.375 820.031 169.625C825.396 170.875 829.953 172.802 833.703 175.406C837.505 178.01 840.396 181.266 842.375 185.172C844.354 189.078 845.344 193.688 845.344 199C845.344 203.635 844.302 207.958 842.219 211.969C840.188 215.979 836.906 219.234 832.375 221.734C827.844 224.234 821.776 225.589 814.172 225.797L806.906 232.359ZM805.891 281.5H771.203L780.422 261.812H805.891C809.797 261.812 812.974 261.188 815.422 259.938C817.87 258.688 819.667 256.995 820.813 254.859C821.958 252.724 822.531 250.328 822.531 247.672C822.531 244.547 821.984 241.839 820.891 239.547C819.849 237.255 818.182 235.484 815.891 234.234C813.651 232.984 810.656 232.359 806.906 232.359H784.094L784.25 215.328H812.141L818.078 222.047C825.318 221.891 831.099 223.062 835.422 225.562C839.797 228.01 842.948 231.24 844.875 235.25C846.802 239.26 847.766 243.505 847.766 247.984C847.766 255.38 846.177 261.578 843 266.578C839.823 271.526 835.109 275.25 828.859 277.75C822.661 280.25 815.005 281.5 805.891 281.5Z" fill="white"/>
<path d="M422.938 495.879H411.25L411.188 489.066H420.844C422.552 489.066 423.938 488.858 425 488.441C426.083 488.025 426.875 487.421 427.375 486.629C427.875 485.816 428.125 484.816 428.125 483.629C428.125 482.275 427.875 481.181 427.375 480.348C426.875 479.514 426.083 478.91 425 478.535C423.938 478.139 422.562 477.941 420.875 477.941H414.938V515.535H404.75V470.035H420.875C423.604 470.035 426.042 470.285 428.188 470.785C430.333 471.285 432.156 472.056 433.656 473.098C435.177 474.139 436.333 475.441 437.125 477.004C437.917 478.566 438.312 480.41 438.312 482.535C438.312 484.389 437.896 486.118 437.062 487.723C436.25 489.327 434.938 490.629 433.125 491.629C431.312 492.629 428.885 493.171 425.844 493.254L422.938 495.879ZM422.531 515.535H408.656L412.344 507.66H422.531C424.094 507.66 425.365 507.41 426.344 506.91C427.323 506.41 428.042 505.733 428.5 504.879C428.958 504.025 429.188 503.066 429.188 502.004C429.188 500.754 428.969 499.671 428.531 498.754C428.115 497.837 427.448 497.129 426.531 496.629C425.635 496.129 424.438 495.879 422.938 495.879H413.812L413.875 489.066H425.031L427.406 491.754C430.302 491.691 432.615 492.16 434.344 493.16C436.094 494.139 437.354 495.431 438.125 497.035C438.896 498.639 439.281 500.337 439.281 502.129C439.281 505.087 438.646 507.566 437.375 509.566C436.104 511.546 434.219 513.035 431.719 514.035C429.24 515.035 426.177 515.535 422.531 515.535ZM455.656 467.535V515.535H445.875V467.535H455.656ZM461.281 498.973V498.316C461.281 495.837 461.635 493.556 462.344 491.473C463.052 489.368 464.094 487.546 465.469 486.004C466.844 484.462 468.531 483.264 470.531 482.41C472.531 481.535 474.823 481.098 477.406 481.098C480.031 481.098 482.344 481.535 484.344 482.41C486.365 483.264 488.062 484.462 489.438 486.004C490.812 487.546 491.854 489.368 492.562 491.473C493.271 493.556 493.625 495.837 493.625 498.316V498.973C493.625 501.431 493.271 503.712 492.562 505.816C491.854 507.9 490.812 509.723 489.438 511.285C488.062 512.827 486.375 514.025 484.375 514.879C482.375 515.733 480.073 516.16 477.469 516.16C474.885 516.16 472.583 515.733 470.562 514.879C468.542 514.025 466.844 512.827 465.469 511.285C464.094 509.723 463.052 507.9 462.344 505.816C461.635 503.712 461.281 501.431 461.281 498.973ZM471.062 498.316V498.973C471.062 500.306 471.167 501.556 471.375 502.723C471.604 503.889 471.969 504.91 472.469 505.785C472.969 506.66 473.625 507.348 474.438 507.848C475.271 508.327 476.281 508.566 477.469 508.566C478.656 508.566 479.656 508.327 480.469 507.848C481.281 507.348 481.938 506.66 482.438 505.785C482.938 504.91 483.292 503.889 483.5 502.723C483.729 501.556 483.844 500.306 483.844 498.973V498.316C483.844 497.004 483.729 495.775 483.5 494.629C483.292 493.462 482.938 492.431 482.438 491.535C481.938 490.639 481.271 489.941 480.438 489.441C479.625 488.941 478.615 488.691 477.406 488.691C476.24 488.691 475.25 488.941 474.438 489.441C473.625 489.941 472.969 490.639 472.469 491.535C471.969 492.431 471.604 493.462 471.375 494.629C471.167 495.775 471.062 497.004 471.062 498.316ZM520.062 481.723H528.938V514.316C528.938 517.421 528.229 520.056 526.812 522.223C525.417 524.389 523.469 526.035 520.969 527.16C518.469 528.285 515.542 528.848 512.188 528.848C510.729 528.848 509.208 528.65 507.625 528.254C506.042 527.879 504.552 527.306 503.156 526.535C501.76 525.785 500.594 524.827 499.656 523.66L503.812 517.91C504.771 518.993 505.917 519.868 507.25 520.535C508.583 521.223 510.104 521.566 511.812 521.566C513.375 521.566 514.698 521.285 515.781 520.723C516.865 520.16 517.688 519.337 518.25 518.254C518.833 517.171 519.125 515.858 519.125 514.316V489.629L520.062 481.723ZM497.469 499.035V498.379C497.469 495.816 497.781 493.483 498.406 491.379C499.031 489.254 499.938 487.431 501.125 485.91C502.333 484.368 503.781 483.181 505.469 482.348C507.177 481.514 509.094 481.098 511.219 481.098C513.51 481.098 515.406 481.535 516.906 482.41C518.406 483.264 519.625 484.473 520.562 486.035C521.5 487.577 522.24 489.4 522.781 491.504C523.323 493.587 523.76 495.848 524.094 498.285V499.41C523.76 501.743 523.281 503.921 522.656 505.941C522.031 507.962 521.219 509.743 520.219 511.285C519.219 512.806 517.969 514.004 516.469 514.879C514.99 515.733 513.219 516.16 511.156 516.16C509.052 516.16 507.156 515.733 505.469 514.879C503.781 514.025 502.333 512.827 501.125 511.285C499.938 509.743 499.031 507.931 498.406 505.848C497.781 503.764 497.469 501.493 497.469 499.035ZM507.219 498.379V499.035C507.219 500.368 507.344 501.608 507.594 502.754C507.865 503.9 508.26 504.91 508.781 505.785C509.323 506.66 509.99 507.348 510.781 507.848C511.594 508.327 512.542 508.566 513.625 508.566C515.208 508.566 516.49 508.233 517.469 507.566C518.469 506.879 519.198 505.931 519.656 504.723C520.135 503.514 520.385 502.108 520.406 500.504V497.223C520.406 495.889 520.271 494.691 520 493.629C519.729 492.566 519.323 491.671 518.781 490.941C518.26 490.212 517.573 489.66 516.719 489.285C515.885 488.889 514.875 488.691 513.688 488.691C512.625 488.691 511.688 488.941 510.875 489.441C510.062 489.921 509.385 490.598 508.844 491.473C508.302 492.348 507.896 493.379 507.625 494.566C507.354 495.733 507.219 497.004 507.219 498.379ZM561.562 511.629L570.406 481.723H580.906L567.312 520.598C567.021 521.452 566.625 522.368 566.125 523.348C565.646 524.327 564.99 525.264 564.156 526.16C563.344 527.056 562.302 527.785 561.031 528.348C559.76 528.91 558.198 529.191 556.344 529.191C555.406 529.191 554.677 529.139 554.156 529.035C553.656 528.952 552.99 528.806 552.156 528.598L552.125 521.504C552.396 521.504 552.635 521.504 552.844 521.504C553.073 521.525 553.302 521.535 553.531 521.535C554.698 521.535 555.635 521.41 556.344 521.16C557.073 520.91 557.635 520.535 558.031 520.035C558.448 519.556 558.781 518.941 559.031 518.191L561.562 511.629ZM558.594 481.723L565.594 505.785L566.781 516.129L560.188 516.473L548.094 481.723H558.594ZM582.156 498.973V498.316C582.156 495.837 582.51 493.556 583.219 491.473C583.927 489.368 584.969 487.546 586.344 486.004C587.719 484.462 589.406 483.264 591.406 482.41C593.406 481.535 595.698 481.098 598.281 481.098C600.906 481.098 603.219 481.535 605.219 482.41C607.24 483.264 608.938 484.462 610.312 486.004C611.688 487.546 612.729 489.368 613.438 491.473C614.146 493.556 614.5 495.837 614.5 498.316V498.973C614.5 501.431 614.146 503.712 613.438 505.816C612.729 507.9 611.688 509.723 610.312 511.285C608.938 512.827 607.25 514.025 605.25 514.879C603.25 515.733 600.948 516.16 598.344 516.16C595.76 516.16 593.458 515.733 591.438 514.879C589.417 514.025 587.719 512.827 586.344 511.285C584.969 509.723 583.927 507.9 583.219 505.816C582.51 503.712 582.156 501.431 582.156 498.973ZM591.938 498.316V498.973C591.938 500.306 592.042 501.556 592.25 502.723C592.479 503.889 592.844 504.91 593.344 505.785C593.844 506.66 594.5 507.348 595.312 507.848C596.146 508.327 597.156 508.566 598.344 508.566C599.531 508.566 600.531 508.327 601.344 507.848C602.156 507.348 602.812 506.66 603.312 505.785C603.812 504.91 604.167 503.889 604.375 502.723C604.604 501.556 604.719 500.306 604.719 498.973V498.316C604.719 497.004 604.604 495.775 604.375 494.629C604.167 493.462 603.812 492.431 603.312 491.535C602.812 490.639 602.146 489.941 601.312 489.441C600.5 488.941 599.49 488.691 598.281 488.691C597.115 488.691 596.125 488.941 595.312 489.441C594.5 489.941 593.844 490.639 593.344 491.535C592.844 492.431 592.479 493.462 592.25 494.629C592.042 495.775 591.938 497.004 591.938 498.316ZM639.469 507.379V481.723H649.281V515.535H640.094L639.469 507.379ZM640.5 500.473L643.188 500.41C643.188 502.681 642.917 504.775 642.375 506.691C641.854 508.608 641.062 510.275 640 511.691C638.958 513.108 637.656 514.212 636.094 515.004C634.552 515.775 632.75 516.16 630.688 516.16C629.021 516.16 627.49 515.931 626.094 515.473C624.719 514.993 623.531 514.254 622.531 513.254C621.531 512.233 620.76 510.931 620.219 509.348C619.677 507.743 619.406 505.827 619.406 503.598V481.723H629.156V503.66C629.156 504.535 629.26 505.285 629.469 505.91C629.698 506.514 630 507.014 630.375 507.41C630.771 507.806 631.25 508.098 631.812 508.285C632.396 508.473 633.031 508.566 633.719 508.566C635.448 508.566 636.802 508.212 637.781 507.504C638.781 506.775 639.479 505.806 639.875 504.598C640.292 503.368 640.5 501.993 640.5 500.473ZM665.406 489.598V515.535H655.656V481.723H664.812L665.406 489.598ZM675.5 481.473L675.344 490.566C674.927 490.504 674.385 490.452 673.719 490.41C673.052 490.348 672.479 490.316 672 490.316C670.75 490.316 669.667 490.473 668.75 490.785C667.854 491.077 667.104 491.514 666.5 492.098C665.917 492.681 665.479 493.41 665.188 494.285C664.896 495.139 664.75 496.129 664.75 497.254L662.906 496.348C662.906 494.118 663.125 492.077 663.562 490.223C664 488.368 664.635 486.764 665.469 485.41C666.302 484.035 667.323 482.973 668.531 482.223C669.74 481.473 671.115 481.098 672.656 481.098C673.156 481.098 673.667 481.129 674.188 481.191C674.708 481.254 675.146 481.348 675.5 481.473ZM705.719 481.723V515.535H695.938V481.723H705.719ZM695.344 472.973C695.344 471.556 695.844 470.4 696.844 469.504C697.844 468.587 699.156 468.129 700.781 468.129C702.406 468.129 703.719 468.587 704.719 469.504C705.74 470.4 706.25 471.556 706.25 472.973C706.25 474.368 705.74 475.525 704.719 476.441C703.719 477.337 702.406 477.785 700.781 477.785C699.156 477.785 697.844 477.337 696.844 476.441C695.844 475.525 695.344 474.368 695.344 472.973ZM732.438 507.973V467.535H742.25V515.535H733.438L732.438 507.973ZM711.375 499.035V498.379C711.375 495.816 711.656 493.483 712.219 491.379C712.802 489.254 713.646 487.431 714.75 485.91C715.875 484.368 717.26 483.181 718.906 482.348C720.552 481.514 722.438 481.098 724.562 481.098C726.521 481.098 728.229 481.535 729.688 482.41C731.146 483.264 732.385 484.473 733.406 486.035C734.448 487.577 735.292 489.4 735.938 491.504C736.583 493.587 737.073 495.848 737.406 498.285V499.41C737.094 501.743 736.604 503.921 735.938 505.941C735.292 507.962 734.448 509.743 733.406 511.285C732.385 512.806 731.135 514.004 729.656 514.879C728.198 515.733 726.479 516.16 724.5 516.16C722.375 516.16 720.49 515.733 718.844 514.879C717.219 514.025 715.854 512.827 714.75 511.285C713.646 509.743 712.802 507.931 712.219 505.848C711.656 503.764 711.375 501.493 711.375 499.035ZM721.125 498.379V499.035C721.125 500.368 721.219 501.608 721.406 502.754C721.615 503.9 721.948 504.91 722.406 505.785C722.865 506.66 723.469 507.348 724.219 507.848C724.969 508.327 725.885 508.566 726.969 508.566C728.427 508.566 729.625 508.233 730.562 507.566C731.5 506.879 732.208 505.931 732.688 504.723C733.167 503.514 733.417 502.108 733.438 500.504V497.223C733.438 495.889 733.302 494.691 733.031 493.629C732.76 492.566 732.354 491.671 731.812 490.941C731.292 490.212 730.635 489.66 729.844 489.285C729.052 488.889 728.115 488.691 727.031 488.691C725.969 488.691 725.062 488.941 724.312 489.441C723.562 489.921 722.948 490.598 722.469 491.473C722.01 492.348 721.667 493.379 721.438 494.566C721.229 495.733 721.125 497.004 721.125 498.379ZM764.688 516.16C762 516.16 759.594 515.733 757.469 514.879C755.344 514.025 753.542 512.848 752.062 511.348C750.604 509.827 749.49 508.077 748.719 506.098C747.948 504.118 747.562 502.004 747.562 499.754V498.566C747.562 496.046 747.917 493.723 748.625 491.598C749.333 489.473 750.365 487.629 751.719 486.066C753.094 484.483 754.781 483.264 756.781 482.41C758.781 481.535 761.062 481.098 763.625 481.098C766.021 481.098 768.156 481.493 770.031 482.285C771.906 483.056 773.49 484.171 774.781 485.629C776.073 487.066 777.052 488.806 777.719 490.848C778.406 492.868 778.75 495.139 778.75 497.66V501.66H751.5V495.379H769.188V494.629C769.188 493.441 768.969 492.4 768.531 491.504C768.115 490.608 767.49 489.921 766.656 489.441C765.844 488.941 764.812 488.691 763.562 488.691C762.375 488.691 761.385 488.941 760.594 489.441C759.802 489.941 759.167 490.65 758.688 491.566C758.229 492.462 757.896 493.514 757.688 494.723C757.479 495.91 757.375 497.191 757.375 498.566V499.754C757.375 501.066 757.552 502.264 757.906 503.348C758.26 504.431 758.781 505.358 759.469 506.129C760.156 506.9 760.99 507.504 761.969 507.941C762.948 508.379 764.062 508.598 765.312 508.598C766.854 508.598 768.323 508.306 769.719 507.723C771.115 507.118 772.323 506.181 773.344 504.91L777.906 510.129C777.219 511.129 776.25 512.098 775 513.035C773.771 513.952 772.292 514.702 770.562 515.285C768.833 515.868 766.875 516.16 764.688 516.16ZM801.406 507.473V492.973C801.406 491.952 801.25 491.077 800.938 490.348C800.625 489.618 800.135 489.046 799.469 488.629C798.802 488.212 797.938 488.004 796.875 488.004C795.979 488.004 795.198 488.16 794.531 488.473C793.885 488.785 793.385 489.233 793.031 489.816C792.698 490.4 792.531 491.118 792.531 491.973H782.781C782.781 490.452 783.125 489.035 783.812 487.723C784.5 486.41 785.479 485.254 786.75 484.254C788.042 483.254 789.583 482.483 791.375 481.941C793.167 481.379 795.177 481.098 797.406 481.098C800.052 481.098 802.406 481.546 804.469 482.441C806.552 483.316 808.198 484.639 809.406 486.41C810.615 488.16 811.219 490.368 811.219 493.035V507.191C811.219 509.233 811.333 510.837 811.562 512.004C811.812 513.15 812.167 514.15 812.625 515.004V515.535H802.781C802.323 514.556 801.979 513.348 801.75 511.91C801.521 510.452 801.406 508.973 801.406 507.473ZM802.625 494.91L802.688 500.285H797.844C796.76 500.285 795.823 500.421 795.031 500.691C794.26 500.962 793.635 501.337 793.156 501.816C792.677 502.275 792.323 502.816 792.094 503.441C791.885 504.046 791.781 504.712 791.781 505.441C791.781 506.129 791.948 506.754 792.281 507.316C792.615 507.858 793.073 508.285 793.656 508.598C794.24 508.91 794.917 509.066 795.688 509.066C796.958 509.066 798.042 508.816 798.938 508.316C799.854 507.816 800.562 507.212 801.062 506.504C801.562 505.775 801.812 505.098 801.812 504.473L804.156 508.535C803.781 509.368 803.323 510.233 802.781 511.129C802.24 512.004 801.552 512.827 800.719 513.598C799.885 514.348 798.875 514.962 797.688 515.441C796.521 515.921 795.115 516.16 793.469 516.16C791.344 516.16 789.417 515.733 787.688 514.879C785.958 514.004 784.573 512.806 783.531 511.285C782.51 509.764 782 508.014 782 506.035C782 504.264 782.323 502.691 782.969 501.316C783.615 499.941 784.583 498.775 785.875 497.816C787.188 496.858 788.833 496.139 790.812 495.66C792.792 495.16 795.104 494.91 797.75 494.91H802.625ZM835.625 506.129C835.625 505.504 835.427 504.952 835.031 504.473C834.656 503.993 833.969 503.556 832.969 503.16C831.99 502.764 830.604 502.368 828.812 501.973C827.125 501.618 825.552 501.16 824.094 500.598C822.635 500.014 821.365 499.316 820.281 498.504C819.198 497.671 818.354 496.691 817.75 495.566C817.146 494.421 816.844 493.118 816.844 491.66C816.844 490.243 817.146 488.9 817.75 487.629C818.375 486.358 819.271 485.233 820.438 484.254C821.625 483.275 823.062 482.504 824.75 481.941C826.458 481.379 828.396 481.098 830.562 481.098C833.542 481.098 836.115 481.566 838.281 482.504C840.448 483.421 842.115 484.712 843.281 486.379C844.448 488.025 845.031 489.91 845.031 492.035H835.281C835.281 491.16 835.115 490.4 834.781 489.754C834.448 489.108 833.938 488.608 833.25 488.254C832.562 487.879 831.656 487.691 830.531 487.691C829.656 487.691 828.885 487.848 828.219 488.16C827.573 488.452 827.062 488.858 826.688 489.379C826.333 489.9 826.156 490.504 826.156 491.191C826.156 491.671 826.26 492.108 826.469 492.504C826.698 492.879 827.042 493.233 827.5 493.566C827.979 493.879 828.594 494.16 829.344 494.41C830.115 494.66 831.052 494.9 832.156 495.129C834.51 495.566 836.656 496.181 838.594 496.973C840.552 497.764 842.115 498.858 843.281 500.254C844.469 501.65 845.062 503.493 845.062 505.785C845.062 507.285 844.719 508.66 844.031 509.91C843.365 511.16 842.396 512.254 841.125 513.191C839.854 514.129 838.333 514.858 836.562 515.379C834.792 515.9 832.792 516.16 830.562 516.16C827.375 516.16 824.677 515.587 822.469 514.441C820.26 513.296 818.594 511.858 817.469 510.129C816.365 508.379 815.812 506.587 815.812 504.754H824.969C825.01 505.879 825.292 506.796 825.812 507.504C826.354 508.212 827.052 508.733 827.906 509.066C828.76 509.379 829.719 509.535 830.781 509.535C831.844 509.535 832.729 509.389 833.438 509.098C834.146 508.806 834.688 508.41 835.062 507.91C835.438 507.389 835.625 506.796 835.625 506.129ZM851.031 510.91C851.031 509.493 851.531 508.306 852.531 507.348C853.552 506.389 854.875 505.91 856.5 505.91C858.146 505.91 859.458 506.389 860.438 507.348C861.438 508.306 861.938 509.493 861.938 510.91C861.938 512.306 861.438 513.483 860.438 514.441C859.458 515.4 858.146 515.879 856.5 515.879C854.875 515.879 853.552 515.4 852.531 514.441C851.531 513.483 851.031 512.306 851.031 510.91Z" fill="black"/>
</svg>
