<svg width="289" height="275" viewBox="0 0 289 275" fill="none" xmlns="http://www.w3.org/2000/svg">
<g opacity="0.8">
<rect width="289" height="275" rx="8" fill="black"/>
<path d="M43.8438 83.25H64.9375L92.2812 164.578L119.547 83.25H140.641L100.797 197H83.6875L43.8438 83.25ZM31.6562 83.25H53.1406L57.125 167.547V197H31.6562V83.25ZM131.344 83.25H152.906V197H127.359V167.547L131.344 83.25ZM217.281 147.859H188.062L187.906 130.828H212.047C216.318 130.828 219.781 130.307 222.438 129.266C225.146 128.224 227.125 126.714 228.375 124.734C229.625 122.703 230.25 120.203 230.25 117.234C230.25 113.849 229.625 111.115 228.375 109.031C227.125 106.948 225.146 105.438 222.438 104.5C219.781 103.51 216.344 103.016 212.125 103.016H197.281V197H171.812V83.25H212.125C218.948 83.25 225.042 83.875 230.406 85.125C235.771 86.375 240.328 88.3021 244.078 90.9062C247.88 93.5104 250.771 96.7656 252.75 100.672C254.729 104.578 255.719 109.188 255.719 114.5C255.719 119.135 254.677 123.458 252.594 127.469C250.562 131.479 247.281 134.734 242.75 137.234C238.219 139.734 232.151 141.089 224.547 141.297L217.281 147.859ZM216.266 197H181.578L190.797 177.312H216.266C220.172 177.312 223.349 176.688 225.797 175.438C228.245 174.188 230.042 172.495 231.188 170.359C232.333 168.224 232.906 165.828 232.906 163.172C232.906 160.047 232.359 157.339 231.266 155.047C230.224 152.755 228.557 150.984 226.266 149.734C224.026 148.484 221.031 147.859 217.281 147.859H194.469L194.625 130.828H222.516L228.453 137.547C235.693 137.391 241.474 138.562 245.797 141.062C250.172 143.51 253.323 146.74 255.25 150.75C257.177 154.76 258.141 159.005 258.141 163.484C258.141 170.88 256.552 177.078 253.375 182.078C250.198 187.026 245.484 190.75 239.234 193.25C233.036 195.75 225.38 197 216.266 197Z" fill="white"/>
</g>
</svg>
