<svg width="551" height="296" viewBox="0 0 551 296" fill="none" xmlns="http://www.w3.org/2000/svg">
<rect width="551" height="296" rx="8" fill="black"/>
<path d="M76.0625 93.75H97.1562L124.5 175.078L151.766 93.75H172.859L133.016 207.5H115.906L76.0625 93.75ZM63.875 93.75H85.3594L89.3438 178.047V207.5H63.875V93.75ZM163.562 93.75H185.125V207.5H159.578V178.047L163.562 93.75ZM281.375 187.812V207.5H220.828V187.812H281.375ZM229.5 93.75V207.5H204.031V93.75H229.5ZM273.562 139.531V158.594H220.828V139.531H273.562ZM281.453 93.75V113.516H220.828V93.75H281.453ZM385.516 147.422V193.281C383.641 195.417 380.776 197.708 376.922 200.156C373.12 202.604 368.25 204.714 362.312 206.484C356.375 208.203 349.292 209.062 341.062 209.062C333.615 209.062 326.844 207.865 320.75 205.469C314.656 203.021 309.422 199.453 305.047 194.766C300.672 190.026 297.286 184.245 294.891 177.422C292.547 170.599 291.375 162.786 291.375 153.984V147.266C291.375 138.464 292.547 130.651 294.891 123.828C297.234 117.005 300.542 111.25 304.812 106.562C309.083 101.823 314.161 98.2292 320.047 95.7812C325.932 93.3333 332.443 92.1094 339.578 92.1094C349.734 92.1094 358.042 93.75 364.5 97.0312C370.958 100.26 375.854 104.74 379.188 110.469C382.573 116.198 384.656 122.786 385.438 130.234H360.906C360.385 126.432 359.344 123.151 357.781 120.391C356.271 117.63 354.109 115.521 351.297 114.062C348.484 112.552 344.839 111.797 340.359 111.797C336.766 111.797 333.51 112.552 330.594 114.062C327.729 115.521 325.307 117.734 323.328 120.703C321.349 123.672 319.839 127.37 318.797 131.797C317.755 136.172 317.234 141.276 317.234 147.109V153.984C317.234 159.818 317.755 164.948 318.797 169.375C319.891 173.802 321.479 177.5 323.562 180.469C325.646 183.385 328.276 185.599 331.453 187.109C334.682 188.62 338.432 189.375 342.703 189.375C346.036 189.375 348.849 189.115 351.141 188.594C353.432 188.021 355.307 187.318 356.766 186.484C358.224 185.599 359.318 184.792 360.047 184.062V165.156H339.812V147.422H385.516ZM448.406 158.359H419.188L419.031 141.328H443.172C447.443 141.328 450.906 140.807 453.562 139.766C456.271 138.724 458.25 137.214 459.5 135.234C460.75 133.203 461.375 130.703 461.375 127.734C461.375 124.349 460.75 121.615 459.5 119.531C458.25 117.448 456.271 115.938 453.562 115C450.906 114.01 447.469 113.516 443.25 113.516H428.406V207.5H402.938V93.75H443.25C450.073 93.75 456.167 94.375 461.531 95.625C466.896 96.875 471.453 98.8021 475.203 101.406C479.005 104.01 481.896 107.266 483.875 111.172C485.854 115.078 486.844 119.688 486.844 125C486.844 129.635 485.802 133.958 483.719 137.969C481.688 141.979 478.406 145.234 473.875 147.734C469.344 150.234 463.276 151.589 455.672 151.797L448.406 158.359ZM447.391 207.5H412.703L421.922 187.812H447.391C451.297 187.812 454.474 187.188 456.922 185.938C459.37 184.688 461.167 182.995 462.312 180.859C463.458 178.724 464.031 176.328 464.031 173.672C464.031 170.547 463.484 167.839 462.391 165.547C461.349 163.255 459.682 161.484 457.391 160.234C455.151 158.984 452.156 158.359 448.406 158.359H425.594L425.75 141.328H453.641L459.578 148.047C466.818 147.891 472.599 149.062 476.922 151.562C481.297 154.01 484.448 157.24 486.375 161.25C488.302 165.26 489.266 169.505 489.266 173.984C489.266 181.38 487.677 187.578 484.5 192.578C481.323 197.526 476.609 201.25 470.359 203.75C464.161 206.25 456.505 207.5 447.391 207.5Z" fill="white"/>
</svg>
